<mxfile host="app.diagrams.net" modified="2021-08-01T02:58:53.431Z" agent="5.0 (Windows NT 10.0; Win64; x64) AppleWebKit/537.36 (KHTML, like Gecko) Chrome/92.0.4515.115 Safari/537.36" etag="dn7_DRsy33ztQRCzVJSg" version="14.9.3" type="github">
  <diagram id="R2lEEEUBdFMjLlhIrx00" name="Page-1">
    <mxGraphModel dx="1853" dy="826" grid="1" gridSize="10" guides="1" tooltips="1" connect="1" arrows="1" fold="1" page="1" pageScale="1" pageWidth="850" pageHeight="1100" math="0" shadow="0" extFonts="Permanent Marker^https://fonts.googleapis.com/css?family=Permanent+Marker">
      <root>
        <mxCell id="0" />
        <mxCell id="1" parent="0" />
        <mxCell id="HTeMGB93rufCVREDGlnw-1" value="Autor" style="rounded=1;whiteSpace=wrap;html=1;" vertex="1" parent="1">
          <mxGeometry x="160" y="200" width="120" height="60" as="geometry" />
        </mxCell>
        <mxCell id="HTeMGB93rufCVREDGlnw-2" value="Socio" style="rounded=1;whiteSpace=wrap;html=1;" vertex="1" parent="1">
          <mxGeometry x="160" y="620" width="120" height="60" as="geometry" />
        </mxCell>
        <mxCell id="HTeMGB93rufCVREDGlnw-59" style="edgeStyle=orthogonalEdgeStyle;rounded=0;orthogonalLoop=1;jettySize=auto;html=1;" edge="1" parent="1" source="HTeMGB93rufCVREDGlnw-3">
          <mxGeometry relative="1" as="geometry">
            <mxPoint x="660" y="140" as="targetPoint" />
          </mxGeometry>
        </mxCell>
        <mxCell id="HTeMGB93rufCVREDGlnw-60" style="edgeStyle=orthogonalEdgeStyle;rounded=0;orthogonalLoop=1;jettySize=auto;html=1;exitX=1;exitY=0.5;exitDx=0;exitDy=0;" edge="1" parent="1" source="HTeMGB93rufCVREDGlnw-3">
          <mxGeometry relative="1" as="geometry">
            <mxPoint x="770" y="230" as="targetPoint" />
          </mxGeometry>
        </mxCell>
        <mxCell id="HTeMGB93rufCVREDGlnw-3" value="Libro" style="rounded=1;whiteSpace=wrap;html=1;" vertex="1" parent="1">
          <mxGeometry x="600" y="200" width="120" height="60" as="geometry" />
        </mxCell>
        <mxCell id="HTeMGB93rufCVREDGlnw-50" style="edgeStyle=orthogonalEdgeStyle;rounded=0;orthogonalLoop=1;jettySize=auto;html=1;exitX=0.5;exitY=1;exitDx=0;exitDy=0;" edge="1" parent="1" source="HTeMGB93rufCVREDGlnw-4">
          <mxGeometry relative="1" as="geometry">
            <mxPoint x="660" y="750" as="targetPoint" />
          </mxGeometry>
        </mxCell>
        <mxCell id="HTeMGB93rufCVREDGlnw-4" value="Prestamo" style="rounded=1;whiteSpace=wrap;html=1;" vertex="1" parent="1">
          <mxGeometry x="600" y="620" width="120" height="60" as="geometry" />
        </mxCell>
        <mxCell id="HTeMGB93rufCVREDGlnw-5" value="Registra" style="rhombus;whiteSpace=wrap;html=1;" vertex="1" parent="1">
          <mxGeometry x="620" y="390" width="80" height="80" as="geometry" />
        </mxCell>
        <mxCell id="HTeMGB93rufCVREDGlnw-6" value="Tiene" style="rhombus;whiteSpace=wrap;html=1;" vertex="1" parent="1">
          <mxGeometry x="400" y="610" width="80" height="80" as="geometry" />
        </mxCell>
        <mxCell id="HTeMGB93rufCVREDGlnw-7" value="Tiene" style="rhombus;whiteSpace=wrap;html=1;" vertex="1" parent="1">
          <mxGeometry x="399" y="190" width="80" height="80" as="geometry" />
        </mxCell>
        <mxCell id="HTeMGB93rufCVREDGlnw-9" value="" style="endArrow=none;html=1;entryX=0.5;entryY=0;entryDx=0;entryDy=0;exitX=0.5;exitY=1;exitDx=0;exitDy=0;" edge="1" parent="1" source="HTeMGB93rufCVREDGlnw-5" target="HTeMGB93rufCVREDGlnw-4">
          <mxGeometry width="50" height="50" relative="1" as="geometry">
            <mxPoint x="390" y="400" as="sourcePoint" />
            <mxPoint x="440" y="350" as="targetPoint" />
          </mxGeometry>
        </mxCell>
        <mxCell id="HTeMGB93rufCVREDGlnw-10" value="" style="endArrow=none;html=1;entryX=0.5;entryY=1;entryDx=0;entryDy=0;exitX=0.5;exitY=0;exitDx=0;exitDy=0;" edge="1" parent="1" source="HTeMGB93rufCVREDGlnw-5" target="HTeMGB93rufCVREDGlnw-3">
          <mxGeometry width="50" height="50" relative="1" as="geometry">
            <mxPoint x="670" y="480" as="sourcePoint" />
            <mxPoint x="670" y="630" as="targetPoint" />
          </mxGeometry>
        </mxCell>
        <mxCell id="HTeMGB93rufCVREDGlnw-11" value="" style="endArrow=none;html=1;entryX=1;entryY=0.5;entryDx=0;entryDy=0;exitX=0;exitY=0.5;exitDx=0;exitDy=0;" edge="1" parent="1" source="HTeMGB93rufCVREDGlnw-4" target="HTeMGB93rufCVREDGlnw-6">
          <mxGeometry width="50" height="50" relative="1" as="geometry">
            <mxPoint x="680" y="490" as="sourcePoint" />
            <mxPoint x="680" y="640" as="targetPoint" />
          </mxGeometry>
        </mxCell>
        <mxCell id="HTeMGB93rufCVREDGlnw-12" value="" style="endArrow=none;html=1;" edge="1" parent="1" source="HTeMGB93rufCVREDGlnw-2">
          <mxGeometry width="50" height="50" relative="1" as="geometry">
            <mxPoint x="690" y="500" as="sourcePoint" />
            <mxPoint x="400" y="650" as="targetPoint" />
          </mxGeometry>
        </mxCell>
        <mxCell id="HTeMGB93rufCVREDGlnw-13" value="" style="endArrow=none;html=1;exitX=1;exitY=0.5;exitDx=0;exitDy=0;entryX=0;entryY=0.5;entryDx=0;entryDy=0;" edge="1" parent="1" source="HTeMGB93rufCVREDGlnw-1" target="HTeMGB93rufCVREDGlnw-7">
          <mxGeometry width="50" height="50" relative="1" as="geometry">
            <mxPoint x="289" y="592" as="sourcePoint" />
            <mxPoint x="409" y="592" as="targetPoint" />
            <Array as="points" />
          </mxGeometry>
        </mxCell>
        <mxCell id="HTeMGB93rufCVREDGlnw-14" value="" style="endArrow=none;html=1;entryX=0;entryY=0.5;entryDx=0;entryDy=0;exitX=1;exitY=0.5;exitDx=0;exitDy=0;" edge="1" parent="1" source="HTeMGB93rufCVREDGlnw-7" target="HTeMGB93rufCVREDGlnw-3">
          <mxGeometry width="50" height="50" relative="1" as="geometry">
            <mxPoint x="300" y="670" as="sourcePoint" />
            <mxPoint x="420" y="670" as="targetPoint" />
          </mxGeometry>
        </mxCell>
        <mxCell id="HTeMGB93rufCVREDGlnw-16" value="" style="endArrow=classic;html=1;" edge="1" parent="1">
          <mxGeometry width="50" height="50" relative="1" as="geometry">
            <mxPoint x="163" y="204" as="sourcePoint" />
            <mxPoint x="120" y="160" as="targetPoint" />
          </mxGeometry>
        </mxCell>
        <mxCell id="HTeMGB93rufCVREDGlnw-19" value="" style="endArrow=classic;html=1;exitX=0.987;exitY=0.06;exitDx=0;exitDy=0;exitPerimeter=0;" edge="1" parent="1" source="HTeMGB93rufCVREDGlnw-1">
          <mxGeometry width="50" height="50" relative="1" as="geometry">
            <mxPoint x="175" y="200" as="sourcePoint" />
            <mxPoint x="320" y="160" as="targetPoint" />
            <Array as="points" />
          </mxGeometry>
        </mxCell>
        <mxCell id="HTeMGB93rufCVREDGlnw-23" value="" style="endArrow=classic;html=1;exitX=0.5;exitY=0;exitDx=0;exitDy=0;" edge="1" parent="1" source="HTeMGB93rufCVREDGlnw-1">
          <mxGeometry width="50" height="50" relative="1" as="geometry">
            <mxPoint x="173" y="214" as="sourcePoint" />
            <mxPoint x="220" y="140" as="targetPoint" />
          </mxGeometry>
        </mxCell>
        <mxCell id="HTeMGB93rufCVREDGlnw-24" value="Cod_autor" style="ellipse;whiteSpace=wrap;html=1;" vertex="1" parent="1">
          <mxGeometry x="60" y="100" width="80" height="60" as="geometry" />
        </mxCell>
        <mxCell id="HTeMGB93rufCVREDGlnw-25" value="Fecha_Mrte" style="ellipse;whiteSpace=wrap;html=1;" vertex="1" parent="1">
          <mxGeometry x="180" y="80" width="80" height="60" as="geometry" />
        </mxCell>
        <mxCell id="HTeMGB93rufCVREDGlnw-26" value="Fecha_Nac" style="ellipse;whiteSpace=wrap;html=1;" vertex="1" parent="1">
          <mxGeometry x="290" y="100" width="80" height="60" as="geometry" />
        </mxCell>
        <mxCell id="HTeMGB93rufCVREDGlnw-27" value="Fecha_Muerte" style="ellipse;whiteSpace=wrap;html=1;" vertex="1" parent="1">
          <mxGeometry x="70" y="300" width="80" height="60" as="geometry" />
        </mxCell>
        <mxCell id="HTeMGB93rufCVREDGlnw-31" value="" style="edgeStyle=orthogonalEdgeStyle;rounded=0;orthogonalLoop=1;jettySize=auto;html=1;entryX=0.499;entryY=-0.036;entryDx=0;entryDy=0;entryPerimeter=0;exitX=0.5;exitY=1;exitDx=0;exitDy=0;" edge="1" parent="1" source="HTeMGB93rufCVREDGlnw-1" target="HTeMGB93rufCVREDGlnw-28">
          <mxGeometry relative="1" as="geometry">
            <mxPoint x="220" y="310" as="sourcePoint" />
          </mxGeometry>
        </mxCell>
        <mxCell id="HTeMGB93rufCVREDGlnw-28" value="Fecha_Muerte" style="ellipse;whiteSpace=wrap;html=1;" vertex="1" parent="1">
          <mxGeometry x="180" y="330" width="80" height="60" as="geometry" />
        </mxCell>
        <mxCell id="HTeMGB93rufCVREDGlnw-29" value="Fecha_Muerte" style="ellipse;whiteSpace=wrap;html=1;" vertex="1" parent="1">
          <mxGeometry x="280" y="300" width="80" height="60" as="geometry" />
        </mxCell>
        <mxCell id="HTeMGB93rufCVREDGlnw-30" value="" style="endArrow=classic;html=1;entryX=0.768;entryY=0.069;entryDx=0;entryDy=0;entryPerimeter=0;exitX=0.029;exitY=0.969;exitDx=0;exitDy=0;exitPerimeter=0;" edge="1" parent="1" source="HTeMGB93rufCVREDGlnw-1" target="HTeMGB93rufCVREDGlnw-27">
          <mxGeometry width="50" height="50" relative="1" as="geometry">
            <mxPoint x="160" y="260" as="sourcePoint" />
            <mxPoint x="190" y="230" as="targetPoint" />
          </mxGeometry>
        </mxCell>
        <mxCell id="HTeMGB93rufCVREDGlnw-36" value="" style="endArrow=classic;html=1;exitX=0.983;exitY=0.95;exitDx=0;exitDy=0;exitPerimeter=0;entryX=0.301;entryY=0.038;entryDx=0;entryDy=0;entryPerimeter=0;" edge="1" parent="1" source="HTeMGB93rufCVREDGlnw-1" target="HTeMGB93rufCVREDGlnw-29">
          <mxGeometry width="50" height="50" relative="1" as="geometry">
            <mxPoint x="200" y="340" as="sourcePoint" />
            <mxPoint x="250" y="290" as="targetPoint" />
          </mxGeometry>
        </mxCell>
        <mxCell id="HTeMGB93rufCVREDGlnw-39" value="" style="endArrow=classic;html=1;exitX=0.97;exitY=0.05;exitDx=0;exitDy=0;exitPerimeter=0;" edge="1" parent="1" source="HTeMGB93rufCVREDGlnw-2">
          <mxGeometry width="50" height="50" relative="1" as="geometry">
            <mxPoint x="280" y="620" as="sourcePoint" />
            <mxPoint x="340" y="560" as="targetPoint" />
          </mxGeometry>
        </mxCell>
        <mxCell id="HTeMGB93rufCVREDGlnw-40" value="" style="endArrow=classic;html=1;exitX=0.5;exitY=0;exitDx=0;exitDy=0;" edge="1" parent="1" source="HTeMGB93rufCVREDGlnw-2">
          <mxGeometry width="50" height="50" relative="1" as="geometry">
            <mxPoint x="220" y="580" as="sourcePoint" />
            <mxPoint x="220" y="540" as="targetPoint" />
          </mxGeometry>
        </mxCell>
        <mxCell id="HTeMGB93rufCVREDGlnw-41" value="" style="endArrow=classic;html=1;exitX=0.019;exitY=0.039;exitDx=0;exitDy=0;exitPerimeter=0;" edge="1" parent="1" source="HTeMGB93rufCVREDGlnw-2">
          <mxGeometry width="50" height="50" relative="1" as="geometry">
            <mxPoint x="210" y="590" as="sourcePoint" />
            <mxPoint x="110" y="560" as="targetPoint" />
          </mxGeometry>
        </mxCell>
        <mxCell id="HTeMGB93rufCVREDGlnw-42" value="" style="endArrow=classic;html=1;exitX=0;exitY=0.75;exitDx=0;exitDy=0;" edge="1" parent="1" source="HTeMGB93rufCVREDGlnw-2">
          <mxGeometry width="50" height="50" relative="1" as="geometry">
            <mxPoint x="172.27999999999997" y="632.3399999999999" as="sourcePoint" />
            <mxPoint x="90" y="680" as="targetPoint" />
          </mxGeometry>
        </mxCell>
        <mxCell id="HTeMGB93rufCVREDGlnw-43" value="" style="endArrow=classic;html=1;entryX=0.5;entryY=0;entryDx=0;entryDy=0;" edge="1" parent="1" target="HTeMGB93rufCVREDGlnw-44">
          <mxGeometry width="50" height="50" relative="1" as="geometry">
            <mxPoint x="196" y="680" as="sourcePoint" />
            <mxPoint x="190" y="760" as="targetPoint" />
          </mxGeometry>
        </mxCell>
        <mxCell id="HTeMGB93rufCVREDGlnw-44" value="Nombre" style="ellipse;whiteSpace=wrap;html=1;" vertex="1" parent="1">
          <mxGeometry x="150" y="760" width="90" height="70" as="geometry" />
        </mxCell>
        <mxCell id="HTeMGB93rufCVREDGlnw-45" value="Apellido" style="ellipse;whiteSpace=wrap;html=1;" vertex="1" parent="1">
          <mxGeometry y="650" width="90" height="70" as="geometry" />
        </mxCell>
        <mxCell id="HTeMGB93rufCVREDGlnw-46" value="Dirección" style="ellipse;whiteSpace=wrap;html=1;" vertex="1" parent="1">
          <mxGeometry x="30" y="500" width="90" height="70" as="geometry" />
        </mxCell>
        <mxCell id="HTeMGB93rufCVREDGlnw-47" value="Telefono" style="ellipse;whiteSpace=wrap;html=1;" vertex="1" parent="1">
          <mxGeometry x="175" y="470" width="90" height="70" as="geometry" />
        </mxCell>
        <mxCell id="HTeMGB93rufCVREDGlnw-49" value="Rut" style="ellipse;whiteSpace=wrap;html=1;" vertex="1" parent="1">
          <mxGeometry x="330" y="500" width="90" height="70" as="geometry" />
        </mxCell>
        <mxCell id="HTeMGB93rufCVREDGlnw-55" value="" style="endArrow=classic;html=1;exitX=1;exitY=0.167;exitDx=0;exitDy=0;exitPerimeter=0;" edge="1" parent="1" source="HTeMGB93rufCVREDGlnw-4">
          <mxGeometry width="50" height="50" relative="1" as="geometry">
            <mxPoint x="720" y="620" as="sourcePoint" />
            <mxPoint x="770" y="590" as="targetPoint" />
          </mxGeometry>
        </mxCell>
        <mxCell id="HTeMGB93rufCVREDGlnw-57" value="" style="endArrow=classic;html=1;exitX=0.961;exitY=0.978;exitDx=0;exitDy=0;exitPerimeter=0;" edge="1" parent="1" source="HTeMGB93rufCVREDGlnw-4">
          <mxGeometry width="50" height="50" relative="1" as="geometry">
            <mxPoint x="500" y="680" as="sourcePoint" />
            <mxPoint x="760" y="720" as="targetPoint" />
          </mxGeometry>
        </mxCell>
        <mxCell id="HTeMGB93rufCVREDGlnw-61" value="" style="endArrow=classic;html=1;exitX=0.961;exitY=0.019;exitDx=0;exitDy=0;exitPerimeter=0;" edge="1" parent="1" source="HTeMGB93rufCVREDGlnw-3">
          <mxGeometry width="50" height="50" relative="1" as="geometry">
            <mxPoint x="630" y="160" as="sourcePoint" />
            <mxPoint x="770" y="150" as="targetPoint" />
          </mxGeometry>
        </mxCell>
        <mxCell id="HTeMGB93rufCVREDGlnw-63" value="Num_Pag" style="ellipse;whiteSpace=wrap;html=1;" vertex="1" parent="1">
          <mxGeometry x="610" y="80" width="90" height="60" as="geometry" />
        </mxCell>
        <mxCell id="HTeMGB93rufCVREDGlnw-64" value="ISBN" style="ellipse;whiteSpace=wrap;html=1;" vertex="1" parent="1">
          <mxGeometry x="740" y="90" width="90" height="60" as="geometry" />
        </mxCell>
        <mxCell id="HTeMGB93rufCVREDGlnw-65" value="Título" style="ellipse;whiteSpace=wrap;html=1;" vertex="1" parent="1">
          <mxGeometry x="770" y="200" width="80" height="60" as="geometry" />
        </mxCell>
        <mxCell id="HTeMGB93rufCVREDGlnw-66" value="Text" style="text;html=1;align=center;verticalAlign=middle;resizable=0;points=[];autosize=1;strokeColor=none;" vertex="1" parent="1">
          <mxGeometry x="830" width="40" height="20" as="geometry" />
        </mxCell>
        <mxCell id="HTeMGB93rufCVREDGlnw-68" value="Fecha_dev" style="ellipse;whiteSpace=wrap;html=1;" vertex="1" parent="1">
          <mxGeometry x="750" y="710" width="90" height="60" as="geometry" />
        </mxCell>
        <mxCell id="HTeMGB93rufCVREDGlnw-69" value="Fecha_dev_real" style="ellipse;whiteSpace=wrap;html=1;" vertex="1" parent="1">
          <mxGeometry x="740" y="530" width="90" height="60" as="geometry" />
        </mxCell>
        <mxCell id="HTeMGB93rufCVREDGlnw-70" value="Fecha_inicio" style="ellipse;whiteSpace=wrap;html=1;" vertex="1" parent="1">
          <mxGeometry x="615" y="750" width="90" height="60" as="geometry" />
        </mxCell>
        <mxCell id="HTeMGB93rufCVREDGlnw-76" value="N:1" style="text;html=1;align=center;verticalAlign=middle;resizable=0;points=[];autosize=1;strokeColor=none;" vertex="1" parent="1">
          <mxGeometry x="325" y="200" width="30" height="20" as="geometry" />
        </mxCell>
        <mxCell id="HTeMGB93rufCVREDGlnw-77" value="N:1" style="text;html=1;align=center;verticalAlign=middle;resizable=0;points=[];autosize=1;strokeColor=none;" vertex="1" parent="1">
          <mxGeometry x="530" y="200" width="30" height="20" as="geometry" />
        </mxCell>
        <mxCell id="HTeMGB93rufCVREDGlnw-78" value="1:1" style="text;html=1;align=center;verticalAlign=middle;resizable=0;points=[];autosize=1;strokeColor=none;" vertex="1" parent="1">
          <mxGeometry x="520" y="660" width="30" height="20" as="geometry" />
        </mxCell>
        <mxCell id="HTeMGB93rufCVREDGlnw-79" value="N:0" style="text;html=1;align=center;verticalAlign=middle;resizable=0;points=[];autosize=1;strokeColor=none;" vertex="1" parent="1">
          <mxGeometry x="340" y="660" width="30" height="20" as="geometry" />
        </mxCell>
      </root>
    </mxGraphModel>
  </diagram>
</mxfile>
